<svg xmlns="http://www.w3.org/2000/svg" viewBox="976 184.2 138.5 25.8"><defs><style>.cls-1{fill:#4d92cf}.cls-2{fill:#003865}</style></defs><g id="Group_470" data-name="Group 470" transform="translate(976 169)"><g id="Group_466" data-name="Group 466"><path id="Path_499" data-name="Path 499" class="cls-1" d="M0 15.9v9.6h3.5v-5.6h4.6v17.3H4.3v3.5h13.3v-3.5h-3.8V19.9h4.7v2.9H22v-6.9H0"/><path id="Path_500" data-name="Path 500" class="cls-1" d="M29 23.9v3.3h2.7v8.5l-.2.1a5.569 5.569 0 0 1-3.3 1.3 2.445 2.445 0 0 1-1.8-.6 3.439 3.439 0 0 1-.5-2V24h-7.4v3.3h2.6V36a4.778 4.778 0 0 0 1.3 3.7 4.924 4.924 0 0 0 3.7 1.3 8.8 8.8 0 0 0 4.9-1.7l.6-.4v1.9h6.8v-3.2h-2V24.1c-.2-.2-7-.2-7.4-.2"/><path id="Path_501" data-name="Path 501" class="cls-1" d="M43.5 17.5a6.125 6.125 0 0 0-1.6 4.4v2h-2.4v3.3h2.4v10.3h-2.4v3.2h9.9v-3.2h-2.8V27.1h2.8v-3.3h-2.8v-2.3c0-2.3 1-2.8 1.9-2.8.7 0 1.3.6 1.8 1.6.3-.2 3-2.4 3.3-2.6-1.1-1.3-2.9-2-5.3-2-2.1.1-3.8.6-4.8 1.8"/><path id="Path_502" data-name="Path 502" class="cls-1" d="M56 18.5s-3.2 2.3-3.3 2.4v3h-2.2v3.3h2.2v9.6c0 2.8 1.3 4.2 4.2 4.2a10.8 10.8 0 0 0 3.8-.8v-3.1a7.845 7.845 0 0 1-1.4.2c-.8 0-1.3-.2-1.5-.5a2.984 2.984 0 0 1-.3-1.6v-8h3.2v-3.3h-3.2v-6.4c-.4.2-1.5 1-1.5 1"/><path id="Path_503" data-name="Path 503" class="cls-1" d="M62.7 24.7a4.4 4.4 0 0 0-1.7 3.5 4.1 4.1 0 0 0 1.8 3.5 13.924 13.924 0 0 0 6 2 8.659 8.659 0 0 1 2.9.8 1.287 1.287 0 0 1 .8 1.3 1.508 1.508 0 0 1-.9 1.4 5.4 5.4 0 0 1-5.1-.3 2.646 2.646 0 0 1-1.2-1.9h-3.7v5.6h3.6v-1.3l.4.5c.7.8 2.1 1.2 4.1 1.2a7.262 7.262 0 0 0 5.1-1.6 5.035 5.035 0 0 0 1.8-4 5.291 5.291 0 0 0-.9-3 5.236 5.236 0 0 0-2.5-1.8 35.433 35.433 0 0 0-4.8-1.1 14.368 14.368 0 0 1-2.6-.6 1.1 1.1 0 0 1-.6-1c0-1.1.9-1.6 2.7-1.6 2.2 0 3.5.6 4 1.8h3.6v-4.6H72v.7l-.3-.1a10.489 10.489 0 0 0-4.4-.9 7.638 7.638 0 0 0-4.6 1.5"/></g><g id="Group_469" data-name="Group 469"><g id="Group_467" data-name="Group 467"><path id="Path_504" data-name="Path 504" class="cls-2" d="M80.6 27.2v-.5c.8-.1 1.2-.1 1.3-.8a11.518 11.518 0 0 0 .1-2v-6.4c0-.9 0-.9-1.5-1V16h3.3c.6 1.4 1.3 2.9 1.9 4.3l1.9 4.3 2-4.4c.6-1.4 1.3-2.9 1.9-4.3h3.3v.5c-1.4.1-1.5.1-1.5 1v8.2c0 .9 0 .9 1.5 1v.5h-4.5v-.5c1.4-.1 1.5-.1 1.5-1v-8.2L87.5 27H87l-4.2-9.6v6.5a10.933 10.933 0 0 0 .1 2c.1.7.5.7 1.5.8v.5h-3.8z"/><path id="Path_505" data-name="Path 505" class="cls-2" d="M97.2 22.9c0 1.7.4 3.6 2.4 3.6a2.631 2.631 0 0 0 2.4-1.7l.5.3a3.1 3.1 0 0 1-3.2 2.3c-2.6 0-3.8-1.5-3.8-4.1 0-2.4 1.2-4.2 3.7-4.2a3.012 3.012 0 0 1 3.3 3.3.526.526 0 0 1-.6.6h-4.7zm3.1-.6c.5 0 .6-.2.6-.5 0-.6-.2-2.2-1.7-2.2-1.7 0-1.9 2-1.9 2.7z"/><path id="Path_506" data-name="Path 506" class="cls-2" d="M109.8 27.2l-.1-.1v-.8a3.979 3.979 0 0 1-2.5 1.1c-2.1 0-3.4-1.6-3.4-4a4.421 4.421 0 0 1 1.1-3.2 4.081 4.081 0 0 1 3-1.1 3.425 3.425 0 0 1 1.8.4v-2.7c0-.6-.1-.7-.5-.7l-.6-.1v-.4l2.6-.4.1.1v10.5c0 .8.1.9 1.2.9v.5h-2.7zm-.1-5.6a2.22 2.22 0 0 0-.1-.9 1.673 1.673 0 0 0-1.7-1c-1.7 0-2.4 1.5-2.4 3.6 0 1.9.7 3.3 2.2 3.3a1.83 1.83 0 0 0 1.9-1.2 2.769 2.769 0 0 0 .1-.9z"/><path id="Path_507" data-name="Path 507" class="cls-2" d="M116.2 19l.1.1v6.6c0 .8.1.9 1.2.9v.5h-4v-.5c1.2-.1 1.2-.1 1.2-.9v-5.1c0-.6-.1-.7-.5-.7l-.6-.1v-.4zm.3-2.4a1 1 0 1 1-1-1 .945.945 0 0 1 1 1z"/><path id="Path_508" data-name="Path 508" class="cls-2" d="M124.5 24.8l.5.2a3.182 3.182 0 0 1-3.1 2.3c-2.4 0-3.8-1.4-3.8-4.1 0-2.2 1-4.3 3.9-4.3 1.8 0 2.8.8 2.8 1.6 0 .6-.6.8-1 .8-.3 0-.4-.2-.5-.4-.3-.9-.8-1.4-1.5-1.4-1.1 0-2.1 1-2.1 3.4 0 1.5.5 3.5 2.4 3.5a2.16 2.16 0 0 0 2.4-1.6z"/><path id="Path_509" data-name="Path 509" class="cls-2" d="M132.3 25.1c0 1 .3 1.3.6 1.4.2.1.6 0 .8 0l.1.4a4.486 4.486 0 0 1-1.9.5c-.6 0-.8-.4-1.1-1a5.977 5.977 0 0 1-2.4 1 2.2 2.2 0 0 1-2.3-2.3 1.782 1.782 0 0 1 1.5-1.9 12.988 12.988 0 0 0 3.3-1.2v-.7c0-1.3-.7-1.6-1.4-1.6-.6 0-1.3.4-1.7 1.6-.1.3-.2.5-.5.5a.861.861 0 0 1-.9-.8c0-.9 1.4-1.9 3.3-1.9 2.5 0 2.7 1.2 2.7 2.2v3.8zm-1.5-2.5c-.4.2-1.2.5-1.9.8-.9.3-1.3.7-1.3 1.5 0 1 .5 1.7 1.5 1.7a1.53 1.53 0 0 0 1.6-1.7v-2.3z"/><path id="Path_510" data-name="Path 510" class="cls-2" d="M137.3 25.8c0 .8.1.9 1.2.9v.5h-4v-.5c1.2-.1 1.2-.1 1.2-.9v-9c0-.6-.1-.7-.5-.7l-.6-.1v-.4l2.6-.4.1.1z"/></g><g id="Group_468" data-name="Group 468"><path id="Path_511" data-name="Path 511" class="cls-2" d="M90.1 32.3h-.5a2.808 2.808 0 0 0-3.1-2.6c-3 0-4.1 2.7-4.1 5.3 0 2 .7 5.3 4 5.3 2.1 0 3-1.2 3.4-2.9h.5l-.2 2.7a9.12 9.12 0 0 1-3.6.8 6.138 6.138 0 0 1-4.4-1.4 6.016 6.016 0 0 1-1.5-4.4 6.58 6.58 0 0 1 1.5-4.3 6.036 6.036 0 0 1 4.6-1.7 9 9 0 0 1 3.4.6v2.6z"/><path id="Path_512" data-name="Path 512" class="cls-2" d="M93.2 36.3c0 1.7.4 3.6 2.4 3.6a2.631 2.631 0 0 0 2.4-1.7l.5.3a3.1 3.1 0 0 1-3.2 2.3c-2.6 0-3.8-1.5-3.8-4.1 0-2.4 1.2-4.2 3.7-4.2a3.012 3.012 0 0 1 3.3 3.3.526.526 0 0 1-.6.6h-4.7zm3.1-.6c.5 0 .6-.2.6-.5 0-.6-.2-2.2-1.7-2.2-1.7 0-1.9 2-1.9 2.7z"/><path id="Path_513" data-name="Path 513" class="cls-2" d="M107.3 39.2c0 .8.1.9 1.2.9v.5h-4v-.5c1.2-.1 1.2-.1 1.2-.9v-3.8c0-1.4-.6-2-1.7-2a2.013 2.013 0 0 0-1.9 1.2 2.388 2.388 0 0 0-.2.9v3.8c0 .8.1.9 1.2.9v.5h-4v-.5c1.2-.1 1.2-.1 1.2-.9v-5.1c0-.6-.1-.7-.5-.7l-.6-.1V33l2.4-.4.2 1.2a5.63 5.63 0 0 1 3-1.2c1.5 0 2.4.9 2.4 2.6v4z"/><path id="Path_514" data-name="Path 514" class="cls-2" d="M111.5 33.3v5c0 1.2.5 1.6 1.1 1.6a2.537 2.537 0 0 0 1.2-.2l.1.3a4.358 4.358 0 0 1-2.1.7 1.674 1.674 0 0 1-1.8-1.9v-5.7h-1.2v-.6h1.2l1-2h.5v2h2.1v.6h-2.1z"/><path id="Path_515" data-name="Path 515" class="cls-2" d="M116.1 36.3c0 1.7.4 3.6 2.4 3.6a2.631 2.631 0 0 0 2.4-1.7l.5.3a3.1 3.1 0 0 1-3.2 2.3c-2.6 0-3.8-1.5-3.8-4.1 0-2.4 1.2-4.2 3.7-4.2a3.012 3.012 0 0 1 3.3 3.3c0 .5-.3.6-.7.6h-4.6zm3.1-.6c.5 0 .6-.2.6-.5 0-.6-.2-2.2-1.7-2.2-1.7 0-1.9 2-1.9 2.7z"/><path id="Path_516" data-name="Path 516" class="cls-2" d="M124.9 33.8c1.1-.9 1.6-1.3 2.1-1.3a.818.818 0 0 1 .9.8.887.887 0 0 1-.7.9.367.367 0 0 1-.3-.1 1.854 1.854 0 0 0-1-.4c-.4 0-.9.4-.9 1.7v3.8c0 .8.1.9 1.5.9v.5h-4.3v-.5c1.1-.1 1.2-.1 1.2-.9v-5.1c0-.6-.1-.7-.5-.7l-.6-.1v-.4l2.5-.4z"/></g></g></g></svg>